<?xml version="1.0" encoding="UTF-8" standalone="no"?>
<!-- Created with Inkscape (http://www.inkscape.org/) -->

<svg
   width="210mm"
   height="297mm"
   viewBox="0 0 210 297"
   version="1.1"
   id="svg5"
   xml:space="preserve"
   sodipodi:docname="share-hover.svg"
   inkscape:version="1.2 (1:1.2.1+202207142221+cd75a1ee6d)"
   xmlns:inkscape="http://www.inkscape.org/namespaces/inkscape"
   xmlns:sodipodi="http://sodipodi.sourceforge.net/DTD/sodipodi-0.dtd"
   xmlns="http://www.w3.org/2000/svg"
   xmlns:svg="http://www.w3.org/2000/svg"><sodipodi:namedview
     id="namedview7"
     pagecolor="#ffffff"
     bordercolor="#000000"
     borderopacity="0.25"
     inkscape:showpageshadow="2"
     inkscape:pageopacity="0.0"
     inkscape:pagecheckerboard="0"
     inkscape:deskcolor="#d1d1d1"
     inkscape:document-units="mm"
     showgrid="true"
     showguides="true"
     inkscape:zoom="0.78216891"
     inkscape:cx="258.25624"
     inkscape:cy="607.92496"
     inkscape:window-width="1920"
     inkscape:window-height="1033"
     inkscape:window-x="0"
     inkscape:window-y="0"
     inkscape:window-maximized="1"
     inkscape:current-layer="svg5"><inkscape:grid
       type="xygrid"
       id="grid16365" /></sodipodi:namedview><defs
     id="defs2" /><path
     d="m 209.08661,95.347715 c 0,8.173945 -2.91307,15.173925 -8.73919,20.999955 -5.82612,5.82616 -12.82616,8.73924 -21.00011,8.73924 -1.21748,0 -2.65228,-0.13015 -4.3044,-0.39045 -1.65217,-0.2616 -3.17392,-0.65271 -4.56523,-1.17331 -4.86336,20.45707 -30.27055,52.50497 -45.91329,79.04377 2.95653,2.60874 5.34785,5.82615 7.17395,9.65224 1.82611,3.82622 2.73916,7.73933 2.73916,11.73934 0,8.17395 -2.91306,15.17394 -8.73918,20.99996 -5.82612,5.82615 -12.82616,8.73924 -21.00013,8.73924 -8.347864,0 -15.391379,-2.91309 -21.130542,-8.73924 -5.739157,-5.82602 -8.608736,-12.82601 -8.608736,-20.99996 0,-4.00001 0.782608,-7.82616 2.347825,-11.47845 1.565234,-3.65216 3.826122,-6.95654 6.782665,-9.91313 -16.222716,-24.91273 -39.284329,-40.83882 -45.391557,-79.04377 -1.217475,0.52191 -2.608788,0.91302 -4.173941,1.17331 -1.565233,0.2603 -3.043503,0.39045 -4.434811,0.39045 -8.347872,0 -15.391384,-2.91308 -21.1305402,-8.73924 -5.7391681,-5.82603 -8.60875211,-12.82601 -8.60875211,-20.999955 0,-8.347874 2.86958401,-15.391444 8.60875211,-21.13071 5.7391562,-5.739126 12.7826682,-8.60869 21.1305402,-8.60869 8.173962,0 15.174001,2.869564 21.000119,8.60869 5.826118,5.739266 8.739175,12.782836 8.739175,21.13071 0,4.000002 -0.652185,7.869535 -1.956556,11.608605 -1.30437,3.73919 -3.434815,6.91315 -6.391333,9.52189 -3.084265,36.70163 27.953836,53.43547 43.826318,79.04396 1.39132,-0.34838 3.000026,-0.6527 4.826114,-0.913 1.82611,-0.26031 3.34786,-0.39045 4.56525,-0.39045 1.21734,0 2.52169,0.13014 3.91305,0.39045 1.39132,0.2603 2.78264,0.56462 4.17395,0.913 18.34862,-25.72938 46.12519,-50.99652 44.8698,-79.04396 -2.43479,-2.60874 -4.39133,-5.65224 -5.8696,-9.13047 -1.47827,-3.47823 -2.2174,-7.478237 -2.2174,-12.000025 0,-8.347874 2.86959,-15.391444 8.60875,-21.13071 5.73915,-5.739126 12.78268,-8.60869 21.13057,-8.60869 8.17393,0 15.17397,2.869564 21.0001,8.60869 5.82612,5.739266 8.73917,12.782836 8.73917,21.13071 z m -164.870485,0 c 0,-4.000007 -1.347833,-7.347898 -4.043497,-10.043672 -2.695666,-2.695643 -6.043511,-4.043464 -10.043535,-4.043464 -4.000023,0 -7.347869,1.347821 -10.043534,4.043464 -2.695666,2.695774 -4.043499,6.043665 -4.043499,10.043672 0,4.000002 1.347833,7.347825 4.043499,10.043475 2.695665,2.69564 6.043511,4.04345 10.043534,4.04345 4.000024,0 7.347869,-1.34781 10.043535,-4.04345 2.695664,-2.69565 4.043497,-6.043473 4.043497,-10.043475 z M 118.82523,223.95712 c 0,-4.00001 -1.34783,-7.3479 -4.04348,-10.04366 -2.69568,-2.69565 -6.04352,-4.04347 -10.04356,-4.04347 -4.00002,0 -7.347857,1.34782 -10.043524,4.04347 -2.695661,2.69576 -4.04349,6.04365 -4.04349,10.04366 0,4.00001 1.347829,7.34784 4.04349,10.04349 2.695667,2.69563 6.043504,4.04345 10.043524,4.04345 4.00004,0 7.34788,-1.34782 10.04356,-4.04345 2.69565,-2.69565 4.04348,-6.04348 4.04348,-10.04349 z M 193.43434,95.347715 c 0,-4.000007 -1.34783,-7.347898 -4.04349,-10.043672 -2.69568,-2.695643 -6.04353,-4.043464 -10.04354,-4.043464 -4.00002,0 -7.34786,1.347821 -10.04353,4.043464 -2.69569,2.695774 -4.04353,6.043665 -4.04353,10.043672 0,4.000002 1.34783,7.347825 4.0435,10.043475 2.69569,2.69564 6.04354,4.04345 10.04356,4.04345 4.00001,0 7.34786,-1.34781 10.04354,-4.04345 2.69566,-2.69565 4.04349,-6.043473 4.04349,-10.043475 z"
     id="path25211"
     style="stroke-width:5.217;stroke-dasharray:none;fill:#2dd4bf;fill-opacity:1"
     sodipodi:nodetypes="scsccccscscscccsscscscscccsssccsscscssscscsssssscscsssssscscsssss" /></svg>
