<?xml version="1.0" encoding="UTF-8" standalone="no"?>
<!-- Created with Inkscape (http://www.inkscape.org/) -->

<svg
   width="210mm"
   height="297mm"
   viewBox="0 0 210 297"
   version="1.1"
   id="svg5"
   xml:space="preserve"
   sodipodi:docname="visibility-hover.svg"
   inkscape:version="1.2 (1:1.2.1+202207142221+cd75a1ee6d)"
   xmlns:inkscape="http://www.inkscape.org/namespaces/inkscape"
   xmlns:sodipodi="http://sodipodi.sourceforge.net/DTD/sodipodi-0.dtd"
   xmlns="http://www.w3.org/2000/svg"
   xmlns:svg="http://www.w3.org/2000/svg"><sodipodi:namedview
     id="namedview7"
     pagecolor="#ffffff"
     bordercolor="#000000"
     borderopacity="0.25"
     inkscape:showpageshadow="2"
     inkscape:pageopacity="0.0"
     inkscape:pagecheckerboard="0"
     inkscape:deskcolor="#d1d1d1"
     inkscape:document-units="mm"
     showgrid="true"
     showguides="true"
     inkscape:zoom="0.78216891"
     inkscape:cx="258.25624"
     inkscape:cy="607.92496"
     inkscape:window-width="1920"
     inkscape:window-height="1033"
     inkscape:window-x="0"
     inkscape:window-y="0"
     inkscape:window-maximized="1"
     inkscape:current-layer="svg5"><inkscape:grid
       type="xygrid"
       id="grid16365" /></sodipodi:namedview><defs
     id="defs2" /><g
     inkscape:groupmode="layer"
     id="layer5"
     inkscape:label="Layer 2"
     style="display:inline"
     transform="matrix(1.2340064,0,0,1.2340064,-29.462398,-25.419726)"><path
       style="fill:#000000;stroke:#2dd4bf;stroke-width:15;stroke-dasharray:none;stroke-opacity:1"
       d="m 158.82508,159.00225 0.0301,68.45481"
       id="path21006" /><path
       style="fill:#000000;stroke:#2dd4bf;stroke-width:15;stroke-dasharray:none;stroke-opacity:1"
       d="m 124.44751,193.13654 68.4548,-0.0301"
       id="path21006-5" /></g><path
     style="display:inline;stroke-width:4.23599;stroke:#2dd4bf;stroke-opacity:1;fill:#2dd4bf;fill-opacity:1"
     d="m 105.47382,115.42187 c -10.025183,0 -18.532615,3.49464 -25.522072,10.48403 -6.989351,6.98939 -10.48402,15.49688 -10.48402,25.52207 0,10.02519 3.494669,18.53222 10.48402,25.52161 6.989457,6.9894 15.496889,10.48448 25.522072,10.48448 10.02516,0 18.53272,-3.49508 25.52207,-10.48448 6.98945,-6.98939 10.48403,-15.49642 10.48403,-25.52161 0,-10.02519 -3.49458,-18.53268 -10.48403,-25.52207 -6.98935,-6.98939 -15.49691,-10.48403 -25.52207,-10.48403 z m 0,12.28433 c 6.63638,0 12.24935,2.29441 16.83836,6.88341 4.58901,4.58899 6.88341,10.20196 6.88341,16.83836 0,6.6364 -2.2944,12.2489 -6.88341,16.83789 -4.58901,4.58897 -10.20198,6.88342 -16.83836,6.88342 -6.636386,0 -12.24888,-2.29445 -16.8379,-6.88342 -4.589014,-4.58899 -6.883868,-10.20149 -6.883868,-16.83789 0,-6.6364 2.294854,-12.24937 6.883868,-16.83836 4.58902,-4.589 10.201514,-6.88341 16.8379,-6.88341 z"
     id="path3454" /><path
     style="display:inline;stroke-width:4.76636;stroke:#2dd4bf;stroke-opacity:1;fill:#2dd4bf;fill-opacity:1"
     d="m 104.98171,79.932072 c -23.196376,0 -44.168348,6.593735 -62.916061,19.780705 C 23.317939,112.89974 9.3364078,130.13817 0.12143962,151.42797 9.3364078,172.71778 23.317939,189.95619 42.065649,203.14316 c 18.747713,13.18696 39.719685,19.78018 62.916061,19.78018 1.66959,0 3.32626,-0.0381 4.97282,-0.10645 v -14.32471 c -1.64736,0.0786 -3.30207,0.1323 -4.97282,0.1323 -19.224389,0 -36.899486,-5.20332 -53.025708,-15.6099 C 35.82978,182.608 23.476811,168.74579 14.897282,151.42797 23.476811,134.11013 35.82978,120.24793 51.956002,109.84136 68.082224,99.434771 85.757321,94.231458 104.98171,94.231458 c 19.22437,0 36.9,5.203313 53.02622,15.609902 16.12623,10.40657 28.39947,24.26877 36.81997,41.58661 -1.27973,2.63192 -2.65936,5.17427 -4.11706,7.64656 h 15.5143 c 1.27442,-2.49034 2.48607,-5.0341 3.61683,-7.64656 -9.21496,-21.2898 -23.19598,-38.52823 -41.94369,-51.715193 -18.74771,-13.18697 -39.72021,-19.780705 -62.91657,-19.780705 z"
     id="path3448" /><path
     style="display:inline;fill:#2dd4bf;fill-opacity:1;stroke:#2dd4bf;stroke-width:6.65381;stroke-opacity:1"
     d="m 101.59372,177.76996 c -4.896164,-0.60497 -9.587891,-2.65652 -13.550945,-5.92544 -4.118272,-3.39694 -7.357507,-8.44889 -8.688855,-13.55123 -0.897605,-3.44003 -0.960334,-9.34617 -0.137222,-12.91994 2.103051,-9.131 9.554335,-16.92876 18.560373,-19.42341 1.113594,-0.30847 3.788169,-0.63797 5.943489,-0.73223 8.27088,-0.36173 14.6915,2.14163 20.24366,7.89287 5.11115,5.29441 7.3924,11.03098 7.387,18.57577 -0.006,8.14907 -3.51542,15.4352 -9.89483,20.54226 -5.38536,4.31128 -12.88486,6.40352 -19.86267,5.54135 z"
     id="path3450" /></svg>
