<?xml version="1.0" encoding="UTF-8" standalone="no"?>
<!-- Created with Inkscape (http://www.inkscape.org/) -->

<svg
   width="210mm"
   height="297mm"
   viewBox="0 0 210 297"
   version="1.1"
   id="svg5"
   xml:space="preserve"
   sodipodi:docname="visibility.svg"
   inkscape:version="1.2 (1:1.2.1+202207142221+cd75a1ee6d)"
   xmlns:inkscape="http://www.inkscape.org/namespaces/inkscape"
   xmlns:sodipodi="http://sodipodi.sourceforge.net/DTD/sodipodi-0.dtd"
   xmlns="http://www.w3.org/2000/svg"
   xmlns:svg="http://www.w3.org/2000/svg"><sodipodi:namedview
     id="namedview7"
     pagecolor="#ffffff"
     bordercolor="#000000"
     borderopacity="0.25"
     inkscape:showpageshadow="2"
     inkscape:pageopacity="0.0"
     inkscape:pagecheckerboard="0"
     inkscape:deskcolor="#d1d1d1"
     inkscape:document-units="mm"
     showgrid="true"
     showguides="true"
     inkscape:zoom="0.78216891"
     inkscape:cx="258.25624"
     inkscape:cy="607.92495"
     inkscape:window-width="1920"
     inkscape:window-height="1033"
     inkscape:window-x="0"
     inkscape:window-y="0"
     inkscape:window-maximized="1"
     inkscape:current-layer="layer5"><inkscape:grid
       type="xygrid"
       id="grid16365" /></sodipodi:namedview><defs
     id="defs2" /><g
     inkscape:groupmode="layer"
     id="layer5"
     inkscape:label="Layer 2"
     style="display:inline"
     transform="matrix(1.2340064,0,0,1.2340064,-29.462398,-25.419726)"><path
       style="fill:#000000;stroke:#000008;stroke-width:15;stroke-dasharray:none;stroke-opacity:1"
       d="m 158.82508,159.00225 0.0301,68.45481"
       id="path21006" /><path
       style="fill:#000000;stroke:#000008;stroke-width:15;stroke-dasharray:none;stroke-opacity:1"
       d="m 124.44751,193.13654 68.4548,-0.0301"
       id="path21006-5" /></g><path
     id="path25140"
     style="stroke-width:4.76636"
     d="M 104.98171 79.932072 C 81.785334 79.932072 60.813362 86.525807 42.065649 99.712777 C 23.317939 112.89974 9.3364078 130.13817 0.12143962 151.42797 C 9.3364078 172.71778 23.317939 189.95619 42.065649 203.14316 C 60.813362 216.33012 81.785334 222.92334 104.98171 222.92334 C 106.6513 222.92334 108.30797 222.88521 109.95453 222.81689 L 109.95453 208.49218 C 108.30717 208.57079 106.65246 208.62448 104.98171 208.62448 C 85.757321 208.62448 68.082224 203.42116 51.956002 193.01458 C 35.82978 182.608 23.476811 168.74579 14.897282 151.42797 C 23.476811 134.11013 35.82978 120.24793 51.956002 109.84136 C 68.082224 99.434771 85.757321 94.231458 104.98171 94.231458 C 124.20608 94.231458 141.88171 99.434771 158.00793 109.84136 C 174.13416 120.24793 186.4074 134.11013 194.8279 151.42797 C 193.54817 154.05989 192.16854 156.60224 190.71084 159.07453 L 206.22514 159.07453 C 207.49956 156.58419 208.71121 154.04043 209.84197 151.42797 C 200.62701 130.13817 186.64599 112.89974 167.89828 99.712777 C 149.15057 86.525807 128.17807 79.932072 104.98171 79.932072 z M 104.98171 110.91364 C 93.701295 110.91364 84.128669 114.84583 76.264079 122.71034 C 68.39961 130.57485 64.467383 140.14755 64.467383 151.42797 C 64.467383 162.70839 68.39961 172.28056 76.264079 180.14508 C 84.128669 188.0096 93.701295 191.94229 104.98171 191.94229 C 116.26209 191.94229 125.83486 188.0096 133.69933 180.14508 C 141.56391 172.28056 145.49603 162.70839 145.49603 151.42797 C 145.49603 140.14755 141.56391 130.57485 133.69933 122.71034 C 125.83486 114.84583 116.26209 110.91364 104.98171 110.91364 z M 104.98171 124.73606 C 112.44901 124.73606 118.76476 127.31775 123.92835 132.48132 C 129.09195 137.64489 131.67362 143.96065 131.67362 151.42797 C 131.67362 158.89529 129.09195 165.21052 123.92835 170.3741 C 118.76476 175.53764 112.44901 178.11936 104.98171 178.11936 C 97.514394 178.11936 91.199173 175.53764 86.035575 170.3741 C 80.871982 165.21052 78.289795 158.89529 78.289795 151.42797 C 78.289795 143.96065 80.871982 137.64489 86.035575 132.48132 C 91.199173 127.31775 97.514394 124.73606 104.98171 124.73606 z " /></svg>
